{
    "asset" : {
        "generator" : "Khronos glTF Blender I/O v3.3.27",
        "version" : "2.0"
    },
    "extensionsUsed" : [
        "KHR_materials_specular",
        "KHR_materials_ior"
    ],
    "scene" : 0,
    "scenes" : [
        {
            "name" : "Scene",
            "nodes" : [
                0,
                1,
                2
            ]
        }
    ],
    "nodes" : [
        {
            "mesh" : 0,
            "name" : "TQ_ARD-node",
            "rotation" : [
                -0.09229595214128494,
                0.7010573744773865,
                0.09229596704244614,
                0.7010573744773865
            ],
            "translation" : [
                0.06854787468910217,
                0.2170279622077942,
                0.0239090695977211
            ]
        },
        {
            "mesh" : 1,
            "name" : "TQ2_ARD-node",
            "rotation" : [
                0,
                -0.7071068286895752,
                0,
                0.7071068286895752
            ],
            "translation" : [
                0.07627324759960175,
                0.19248104095458984,
                0.02428075671195984
            ]
        },
        {
            "mesh" : 0,
            "name" : "TQ_ARD-node.001",
            "rotation" : [
                -0.09229595214128494,
                0.7010573744773865,
                0.09229596704244614,
                0.7010573744773865
            ],
            "translation" : [
                0.06854787468910217,
                0.04742741584777832,
                0.0239090695977211
            ]
        }
    ],
    "materials" : [
        {
            "doubleSided" : true,
            "extensions" : {
                "KHR_materials_specular" : {
                    "specularColorFactor" : [
                        0,
                        0,
                        0
                    ]
                },
                "KHR_materials_ior" : {
                    "ior" : 0
                }
            },
            "name" : "TQ_ARD_front",
            "pbrMetallicRoughness" : {
                "baseColorTexture" : {
                    "index" : 0
                },
                "metallicFactor" : 0,
                "roughnessFactor" : 0.5
            }
        },
        {
            "doubleSided" : true,
            "extensions" : {
                "KHR_materials_specular" : {
                    "specularColorFactor" : [
                        0,
                        0,
                        0
                    ]
                },
                "KHR_materials_ior" : {
                    "ior" : 0
                }
            },
            "name" : "TQ_ARD_back",
            "pbrMetallicRoughness" : {
                "baseColorFactor" : [
                    0.996078372001648,
                    0.9019607901573181,
                    0.6627451181411743,
                    1
                ],
                "metallicFactor" : 0,
                "roughnessFactor" : 0.5
            }
        },
        {
            "doubleSided" : true,
            "extensions" : {
                "KHR_materials_specular" : {
                    "specularColorFactor" : [
                        0,
                        0,
                        0
                    ]
                },
                "KHR_materials_ior" : {
                    "ior" : 0
                }
            },
            "name" : "TQ_ARD_edge",
            "pbrMetallicRoughness" : {
                "baseColorTexture" : {
                    "index" : 1
                },
                "metallicFactor" : 0,
                "roughnessFactor" : 0.5
            }
        },
        {
            "doubleSided" : true,
            "extensions" : {
                "KHR_materials_specular" : {
                    "specularColorFactor" : [
                        0,
                        0,
                        0
                    ]
                },
                "KHR_materials_ior" : {
                    "ior" : 0
                }
            },
            "name" : "TQ2_ARD_front",
            "pbrMetallicRoughness" : {
                "baseColorTexture" : {
                    "index" : 2
                },
                "metallicFactor" : 0,
                "roughnessFactor" : 0.5
            }
        },
        {
            "doubleSided" : true,
            "extensions" : {
                "KHR_materials_specular" : {
                    "specularColorFactor" : [
                        0,
                        0,
                        0
                    ]
                },
                "KHR_materials_ior" : {
                    "ior" : 0
                }
            },
            "name" : "TQ2_ARD_back",
            "pbrMetallicRoughness" : {
                "baseColorFactor" : [
                    0.996078372001648,
                    0.9019607901573181,
                    0.6627451181411743,
                    1
                ],
                "metallicFactor" : 0,
                "roughnessFactor" : 0.5
            }
        },
        {
            "doubleSided" : true,
            "extensions" : {
                "KHR_materials_specular" : {
                    "specularColorFactor" : [
                        0,
                        0,
                        0
                    ]
                },
                "KHR_materials_ior" : {
                    "ior" : 0
                }
            },
            "name" : "TQ2_ARD_edge",
            "pbrMetallicRoughness" : {
                "baseColorTexture" : {
                    "index" : 3
                },
                "metallicFactor" : 0,
                "roughnessFactor" : 0.5
            }
        }
    ],
    "meshes" : [
        {
            "name" : "TQ_ARD-geom",
            "primitives" : [
                {
                    "attributes" : {
                        "POSITION" : 0,
                        "NORMAL" : 1,
                        "TEXCOORD_0" : 2
                    },
                    "indices" : 3,
                    "material" : 0
                },
                {
                    "attributes" : {
                        "POSITION" : 4,
                        "NORMAL" : 5,
                        "TEXCOORD_0" : 6
                    },
                    "indices" : 7,
                    "material" : 1
                },
                {
                    "attributes" : {
                        "POSITION" : 8,
                        "NORMAL" : 9,
                        "TEXCOORD_0" : 10
                    },
                    "indices" : 11,
                    "material" : 2
                }
            ]
        },
        {
            "name" : "TQ2_ARD-geom",
            "primitives" : [
                {
                    "attributes" : {
                        "POSITION" : 12,
                        "NORMAL" : 13,
                        "TEXCOORD_0" : 14
                    },
                    "indices" : 15,
                    "material" : 3
                },
                {
                    "attributes" : {
                        "POSITION" : 16,
                        "NORMAL" : 17,
                        "TEXCOORD_0" : 18
                    },
                    "indices" : 19,
                    "material" : 4
                },
                {
                    "attributes" : {
                        "POSITION" : 20,
                        "NORMAL" : 21,
                        "TEXCOORD_0" : 22
                    },
                    "indices" : 23,
                    "material" : 5
                }
            ]
        }
    ],
    "textures" : [
        {
            "sampler" : 0,
            "source" : 0
        },
        {
            "sampler" : 0,
            "source" : 1
        },
        {
            "sampler" : 0,
            "source" : 2
        },
        {
            "sampler" : 0,
            "source" : 3
        }
    ],
    "images" : [
        {
            "bufferView" : 4,
            "mimeType" : "image/jpeg",
            "name" : "2"
        },
        {
            "bufferView" : 13,
            "mimeType" : "image/png",
            "name" : "TQ_ARD-I1"
        },
        {
            "bufferView" : 18,
            "mimeType" : "image/jpeg",
            "name" : "1"
        },
        {
            "bufferView" : 27,
            "mimeType" : "image/png",
            "name" : "TQ2_ARD-I1"
        }
    ],
    "accessors" : [
        {
            "bufferView" : 0,
            "componentType" : 5126,
            "count" : 1192,
            "max" : [
                0.15029385685920715,
                0.025854231789708138,
                0.06329325586557388
            ],
            "min" : [
                -0.1502940058708191,
                -0.016440335661172867,
                -0.06329400837421417
            ],
            "type" : "VEC3"
        },
        {
            "bufferView" : 1,
            "componentType" : 5126,
            "count" : 1192,
            "type" : "VEC3"
        },
        {
            "bufferView" : 2,
            "componentType" : 5126,
            "count" : 1192,
            "type" : "VEC2"
        },
        {
            "bufferView" : 3,
            "componentType" : 5123,
            "count" : 2370,
            "type" : "SCALAR"
        },
        {
            "bufferView" : 5,
            "componentType" : 5126,
            "count" : 955,
            "max" : [
                0.15000103414058685,
                0.024827992543578148,
                0.062267012894153595
            ],
            "min" : [
                -0.15000119805335999,
                -0.016440335661172867,
                -0.06226776912808418
            ],
            "type" : "VEC3"
        },
        {
            "bufferView" : 6,
            "componentType" : 5126,
            "count" : 955,
            "type" : "VEC3"
        },
        {
            "bufferView" : 7,
            "componentType" : 5126,
            "count" : 955,
            "type" : "VEC2"
        },
        {
            "bufferView" : 8,
            "componentType" : 5123,
            "count" : 2370,
            "type" : "SCALAR"
        },
        {
            "bufferView" : 9,
            "componentType" : 5126,
            "count" : 1856,
            "max" : [
                0.15029385685920715,
                0.025854231789708138,
                0.06329325586557388
            ],
            "min" : [
                -0.1502940058708191,
                -0.016440335661172867,
                -0.06329400837421417
            ],
            "type" : "VEC3"
        },
        {
            "bufferView" : 10,
            "componentType" : 5126,
            "count" : 1856,
            "type" : "VEC3"
        },
        {
            "bufferView" : 11,
            "componentType" : 5126,
            "count" : 1856,
            "type" : "VEC2"
        },
        {
            "bufferView" : 12,
            "componentType" : 5123,
            "count" : 2616,
            "type" : "SCALAR"
        },
        {
            "bufferView" : 14,
            "componentType" : 5126,
            "count" : 720,
            "max" : [
                0.15148338675498962,
                0.17812961339950562,
                0.13251274824142456
            ],
            "min" : [
                -0.1531042903661728,
                -0.19248104095458984,
                -0.06828134506940842
            ],
            "type" : "VEC3"
        },
        {
            "bufferView" : 15,
            "componentType" : 5126,
            "count" : 720,
            "type" : "VEC3"
        },
        {
            "bufferView" : 16,
            "componentType" : 5126,
            "count" : 720,
            "type" : "VEC2"
        },
        {
            "bufferView" : 17,
            "componentType" : 5123,
            "count" : 1443,
            "type" : "SCALAR"
        },
        {
            "bufferView" : 19,
            "componentType" : 5126,
            "count" : 694,
            "max" : [
                0.15045715868473053,
                0.17755858600139618,
                0.13251274824142456
            ],
            "min" : [
                -0.1522650271654129,
                -0.19248104095458984,
                -0.06735542416572571
            ],
            "type" : "VEC3"
        },
        {
            "bufferView" : 20,
            "componentType" : 5126,
            "count" : 694,
            "type" : "VEC3"
        },
        {
            "bufferView" : 21,
            "componentType" : 5126,
            "count" : 694,
            "type" : "VEC2"
        },
        {
            "bufferView" : 22,
            "componentType" : 5123,
            "count" : 1443,
            "type" : "SCALAR"
        },
        {
            "bufferView" : 23,
            "componentType" : 5126,
            "count" : 1172,
            "max" : [
                0.15148338675498962,
                0.17812961339950562,
                0.13251274824142456
            ],
            "min" : [
                -0.1531042903661728,
                -0.19248104095458984,
                -0.06828134506940842
            ],
            "type" : "VEC3"
        },
        {
            "bufferView" : 24,
            "componentType" : 5126,
            "count" : 1172,
            "type" : "VEC3"
        },
        {
            "bufferView" : 25,
            "componentType" : 5126,
            "count" : 1172,
            "type" : "VEC2"
        },
        {
            "bufferView" : 26,
            "componentType" : 5123,
            "count" : 1542,
            "type" : "SCALAR"
        }
    ],
    "bufferViews" : [
        {
            "buffer" : 0,
            "byteLength" : 14304,
            "byteOffset" : 0,
            "target" : 34962
        },
        {
            "buffer" : 0,
            "byteLength" : 14304,
            "byteOffset" : 14304,
            "target" : 34962
        },
        {
            "buffer" : 0,
            "byteLength" : 9536,
            "byteOffset" : 28608,
            "target" : 34962
        },
        {
            "buffer" : 0,
            "byteLength" : 4740,
            "byteOffset" : 38144,
            "target" : 34963
        },
        {
            "buffer" : 0,
            "byteLength" : 59900,
            "byteOffset" : 42884
        },
        {
            "buffer" : 0,
            "byteLength" : 11460,
            "byteOffset" : 102784,
            "target" : 34962
        },
        {
            "buffer" : 0,
            "byteLength" : 11460,
            "byteOffset" : 114244,
            "target" : 34962
        },
        {
            "buffer" : 0,
            "byteLength" : 7640,
            "byteOffset" : 125704,
            "target" : 34962
        },
        {
            "buffer" : 0,
            "byteLength" : 4740,
            "byteOffset" : 133344,
            "target" : 34963
        },
        {
            "buffer" : 0,
            "byteLength" : 22272,
            "byteOffset" : 138084,
            "target" : 34962
        },
        {
            "buffer" : 0,
            "byteLength" : 22272,
            "byteOffset" : 160356,
            "target" : 34962
        },
        {
            "buffer" : 0,
            "byteLength" : 14848,
            "byteOffset" : 182628,
            "target" : 34962
        },
        {
            "buffer" : 0,
            "byteLength" : 5232,
            "byteOffset" : 197476,
            "target" : 34963
        },
        {
            "buffer" : 0,
            "byteLength" : 767,
            "byteOffset" : 202708
        },
        {
            "buffer" : 0,
            "byteLength" : 8640,
            "byteOffset" : 203476,
            "target" : 34962
        },
        {
            "buffer" : 0,
            "byteLength" : 8640,
            "byteOffset" : 212116,
            "target" : 34962
        },
        {
            "buffer" : 0,
            "byteLength" : 5760,
            "byteOffset" : 220756,
            "target" : 34962
        },
        {
            "buffer" : 0,
            "byteLength" : 2886,
            "byteOffset" : 226516,
            "target" : 34963
        },
        {
            "buffer" : 0,
            "byteLength" : 794337,
            "byteOffset" : 229404
        },
        {
            "buffer" : 0,
            "byteLength" : 8328,
            "byteOffset" : 1023744,
            "target" : 34962
        },
        {
            "buffer" : 0,
            "byteLength" : 8328,
            "byteOffset" : 1032072,
            "target" : 34962
        },
        {
            "buffer" : 0,
            "byteLength" : 5552,
            "byteOffset" : 1040400,
            "target" : 34962
        },
        {
            "buffer" : 0,
            "byteLength" : 2886,
            "byteOffset" : 1045952,
            "target" : 34963
        },
        {
            "buffer" : 0,
            "byteLength" : 14064,
            "byteOffset" : 1048840,
            "target" : 34962
        },
        {
            "buffer" : 0,
            "byteLength" : 14064,
            "byteOffset" : 1062904,
            "target" : 34962
        },
        {
            "buffer" : 0,
            "byteLength" : 9376,
            "byteOffset" : 1076968,
            "target" : 34962
        },
        {
            "buffer" : 0,
            "byteLength" : 3084,
            "byteOffset" : 1086344,
            "target" : 34963
        },
        {
            "buffer" : 0,
            "byteLength" : 767,
            "byteOffset" : 1089428
        }
    ],
    "samplers" : [
        {
            "magFilter" : 9729,
            "minFilter" : 9987
        }
    ],
    "buffers" : [
        {
            "byteLength" : 1090196,
            "uri" : "data:application/octet-stream;base64,"
        }
    ]
}
